<svg xmlns="http://www.w3.org/2000/svg" viewBox="0 0 32 32"><path transform="matrix(1,0,0,1,0,0)" d="M 16.7 25.8 C 17 25.8 17.4 26 17.4 26.4 C 17.4 26.8 17 27 16.7 27 C 16.2 27 16 26.8 16 26.4 C 16 26 16.2 25.8 16.7 25.8 z m 2.8 -6.5 c 1.1 -1.1 2.1 -2.2 2.1 -3.9 c 0 -3 -3.1 -4.2 -5.1 -4.2 c -1.3 0 -5.4 0.9 -5.4 4.5 h 0.6 c 0 -3.1 3.5 -4 4.6 -4 c 1.3 0 4.6 0.8 4.6 3.8 c 0 1.5 -0.9 2.6 -2 3.4 c -1.3 1.2 -2.6 2.6 -2.6 5.2 h 0.6 c 0 -2.5 1.3 -3.4 2.5 -4.6 z M27 9.699L19.3 2H5v28h22zM26 29H6V3h12v8h8zm-7-19V3l7 7z"/><path fill="none" d="M 0 0 h 32 v 32 H 0 z"/></svg>