<svg xmlns="http://www.w3.org/2000/svg" xmlns:xlink="http://www.w3.org/1999/xlink" viewBox="0 0 100 100">
        <path transform="matrix(1, 0, 0, 1, 50, 50)" d="M 50 0 C 50 27.61423749153967 27.61423749153967 50 0 50 C -27.61423749153967 50 -50 27.61423749153967 -50 0 C -50 -27.61423749153967 -27.61423749153967 -49.99999999999999 0 -50 C 27.61423749153967 -50 50 -27.61423749153967 50 0 Z" fill="#333333" stroke="#FFFFFF" stroke-width="1.3281249999999996" class="" stroke-opacity="1" fill-opacity="1"></path><path d="M 15 19.999998092651367 L 3.960788402986026e-14 -20.000001907348633 L -15.000000953674316 19.999998092651367 L 15 19.999998092651367 Z " stroke-width="1.8910698602567195" stroke="none" fill="#C7552E" transform="matrix(1, 0, 0, 1, 50, 30)" class="" fill-opacity="1" stroke-opacity="1"></path><path d="M 15 19.999998092651367 L 3.960788402986026e-14 -20.000001907348633 L -15.000000953674316 19.999998092651367 L 15 19.999998092651367 Z " stroke-width="1.8910698602567195" stroke="none" fill="#FFFFFF" transform="matrix(-1, 1.22465e-16, -1.22465e-16, -1, 50, 70)" class="" fill-opacity="1" stroke-opacity="1"></path>
    </svg>